<?xml version="1.0" standalone="no"?>
<!DOCTYPE svg PUBLIC "-//W3C//DTD SVG 20010904//EN"
 "http://www.w3.org/TR/2001/REC-SVG-20010904/DTD/svg10.dtd">
<svg version="1.0" xmlns="http://www.w3.org/2000/svg"
 width="700.000000pt" height="700.000000pt" viewBox="0 0 700.000000 700.000000"
 preserveAspectRatio="xMidYMid meet">
<metadata>
Created by potrace 1.14, written by Peter Selinger 2001-2017
</metadata>
<g transform="translate(0.000000,700.000000) scale(0.100000,-0.100000)"
fill="#000000" stroke="none">
<path d="M5099 6996 c-2 -2 -31 -6 -64 -10 -105 -10 -253 -44 -365 -83 -183
-63 -408 -192 -553 -316 -100 -85 -707 -696 -708 -712 -1 -8 -2 -21 -3 -27 -4
-25 16 -67 37 -81 13 -8 43 -18 67 -22 25 -3 59 -9 75 -11 137 -22 228 -67
320 -159 92 -92 140 -188 161 -320 9 -60 40 -142 76 -203 46 -76 122 -142 226
-195 141 -73 231 -167 281 -293 23 -60 32 -110 37 -214 5 -98 7 -114 32 -182
32 -91 100 -180 185 -242 60 -44 135 -72 266 -100 222 -47 316 -112 452 -312
93 -137 133 -164 192 -132 33 17 715 703 779 783 202 254 330 549 373 867 22
158 13 412 -18 564 -74 357 -235 653 -490 906 -246 243 -592 420 -925 473 -23
4 -54 9 -70 11 -34 6 -358 14 -363 10z m367 -381 c549 -68 1002 -487 1114
-1030 25 -120 16 -168 -37 -202 -50 -33 -135 -12 -161 40 -6 12 -24 76 -40
143 -50 204 -141 370 -281 511 -216 218 -494 324 -809 310 -251 -11 -447 -91
-665 -271 -38 -31 -81 -59 -95 -62 -15 -3 -31 -7 -37 -9 -15 -4 -57 20 -83 47
-25 27 -31 77 -14 119 16 41 163 163 280 233 120 72 310 142 442 162 135 21
266 24 386 9z"/>
<path d="M3454 5496 c-10 -12 -41 -48 -68 -81 -28 -33 -55 -65 -61 -71 -5 -6
-35 -39 -65 -74 -115 -132 -158 -179 -290 -310 -124 -124 -309 -292 -420 -381
-93 -75 -409 -293 -510 -353 -102 -60 -236 -134 -445 -243 -55 -28 -425 -214
-821 -412 -671 -336 -723 -363 -738 -395 -20 -42 -20 -69 -1 -106 20 -39 53
-60 93 -60 38 0 73 15 492 212 47 22 118 56 158 74 39 19 105 49 145 68 39 18
104 48 142 66 39 18 144 68 234 111 90 44 166 79 168 79 8 0 515 252 613 305
221 120 422 246 600 378 115 85 434 353 510 429 124 124 359 368 411 428 31
36 84 96 117 134 69 78 69 82 0 139 -47 38 -108 62 -192 75 -49 8 -56 7 -72
-12z"/>
<path d="M3834 5117 c-10 -12 -41 -49 -69 -82 -27 -33 -57 -67 -65 -75 -13
-14 -94 -105 -153 -174 -88 -100 -268 -273 -427 -407 -75 -63 -160 -134 -189
-159 -29 -25 -61 -49 -70 -54 -8 -5 -20 -14 -26 -19 -10 -9 -148 -103 -467
-319 -277 -188 -494 -359 -717 -566 -180 -166 -324 -313 -566 -577 -298 -325
-278 -299 -277 -356 1 -87 87 -139 173 -105 9 4 74 68 145 144 179 189 532
542 634 634 223 200 464 388 678 527 695 450 887 592 1160 855 188 181 422
427 422 443 0 5 -17 31 -38 59 -38 51 -76 123 -110 206 l-18 48 -20 -23z"/>
<path d="M4049 4428 c-510 -404 -733 -605 -814 -732 -26 -40 -61 -131 -115
-295 -43 -131 -92 -266 -110 -302 -88 -175 -249 -333 -505 -496 -146 -92 -297
-174 -583 -315 -155 -77 -287 -148 -292 -158 -41 -78 16 -172 99 -161 13 1 73
24 135 50 411 177 716 344 962 527 222 166 371 336 470 539 47 97 115 270 146
375 21 70 126 192 270 310 34 29 65 56 68 60 10 14 416 316 543 404 143 100
142 98 107 201 -25 72 -59 131 -97 167 l-29 28 -255 -202z"/>
<path d="M4509 3958 c-21 -41 -145 -242 -162 -263 -4 -5 -52 -71 -105 -146
-53 -74 -121 -166 -151 -205 -57 -73 -382 -402 -514 -519 -44 -39 -91 -81
-106 -95 -28 -26 -65 -58 -266 -230 -349 -298 -452 -409 -528 -565 -56 -114
-91 -242 -186 -675 -6 -25 -22 -99 -36 -165 -35 -157 -35 -188 -4 -221 20 -22
30 -25 66 -21 23 2 49 11 57 20 9 8 27 55 40 104 129 466 164 585 203 693 54
149 101 246 154 317 42 56 85 93 439 378 501 403 622 506 753 640 151 154 305
343 513 628 l86 118 -43 37 c-65 55 -116 111 -150 165 -17 26 -33 47 -35 47
-2 0 -13 -19 -25 -42z"/>
<path d="M5098 3623 c-1 -5 -50 -48 -107 -98 -127 -109 -379 -358 -480 -475
-41 -47 -77 -87 -81 -90 -3 -3 -50 -61 -104 -130 -138 -176 -276 -388 -361
-553 -181 -358 -378 -957 -560 -1707 -104 -427 -110 -461 -80 -506 33 -51 120
-77 170 -52 20 10 64 56 66 67 1 10 6 33 24 106 9 39 18 77 20 85 1 8 19 78
39 155 20 78 38 150 41 160 9 41 55 206 105 375 180 609 377 1100 566 1411 55
92 204 304 241 344 10 11 39 45 64 75 119 141 339 348 496 466 85 65 234 164
246 164 24 0 -7 36 -103 119 -68 59 -190 109 -202 84z"/>
</g>
</svg>
